<svg id="Capa_1" data-name="Capa 1" xmlns="http://www.w3.org/2000/svg" viewBox="0 0 916.23 924.95"><defs><style>.cls-1{fill:none;stroke:#000;stroke-miterlimit:10;stroke-width:18px;}</style></defs><title>linkedin</title><circle class="cls-1" cx="458.18" cy="464.21" r="440.9"/><path d="M298.21,208.28c-17.81,0-34,6.48-46.15,18.63a64.5,64.5,0,0,0,0,92.3c12.14,12.15,29.15,19.43,45.34,18.63H299c16.19,0,31.58-6.48,43.72-18.63a64.9,64.9,0,0,0,19.44-46.15c.81-17-6.48-33.2-18.63-45.34A61.26,61.26,0,0,0,298.21,208.28Zm33.2,99.6c-8.91,8.9-21.06,14.57-34,13.76-12.15,0-25.1-4.86-34-13.76-9.71-8.91-14.57-21.86-14.57-34.82a48.44,48.44,0,0,1,14.57-34.82c8.91-8.9,21.05-13.76,34.82-13.76a47.29,47.29,0,0,1,33.2,13.76A48.44,48.44,0,0,1,346,273.06C346,286,341.12,299,331.41,307.88Z"/><path d="M329.79,354H264.2c-12.95,0-23.48,10.53-23.48,24.29V661.71c0,13,11.34,24.3,24.29,24.3h64.78c12.95,0,24.29-11.34,24.29-23.49V378.32C354.08,365.36,342.74,354,329.79,354Zm8.09,308.49c0,4.05-4,7.29-8.09,7.29H265c-4.05,0-8.1-4-8.1-8.1V378.32c0-4.05,3.24-8.1,7.29-8.1h65.59c4,0,8.09,4,8.09,8.1Z"/><path d="M605.08,345.93h-17c-31.58,0-61.54,13.77-81,35.63V370.22c0-8.09-8.1-16.19-16.19-16.19H410c-7.29,0-16.2,6.48-16.2,15.38v302c0,8.91,8.91,14.57,16.2,14.57H499c7.29,0,16.2-5.66,16.2-14.57V496.53c0-26.72,19.43-47.77,44.53-47.77a47.72,47.72,0,0,1,34,13.77c8.1,7.28,11.33,18.62,11.33,33.2V669.81c0,8.1,8.1,16.19,16.2,16.19h81c8.09,0,16.19-8.09,16.19-16.19V460.91C718.44,396.13,669.05,345.93,605.08,345.93ZM702.25,669l-.81.81H622.09l-.81-174.08c0-19.44-4.86-34-15.39-44.54a63.69,63.69,0,0,0-45.34-18.62c-34,.81-60.73,28.34-60.73,64V669.81H410.76V370.22h80.16l.81.81v51l21.86-21.86.81-.81c16.19-22.67,44.53-37.24,74.49-37.24h17c54.25,0,96.36,43.72,96.36,98.78Z"/></svg>