<svg id="Capa_1" data-name="Capa 1" xmlns="http://www.w3.org/2000/svg" viewBox="0 0 916.23 924.95"><defs><style>.cls-1{fill:none;stroke:#000;stroke-miterlimit:10;stroke-width:18px;}</style></defs><title>mail</title><circle class="cls-1" cx="458.11" cy="462.48" r="440.9"/><g id="_2_PT" data-name=" 2 PT"><path d="M677.48,630.65H238.75a36.61,36.61,0,0,1-36.56-36.56V330.86a36.61,36.61,0,0,1,36.56-36.56H677.48A36.61,36.61,0,0,1,714,330.86V594.09A36.61,36.61,0,0,1,677.48,630.65ZM238.75,308.92a21.93,21.93,0,0,0-21.93,21.94V594.09A21.93,21.93,0,0,0,238.75,616H677.48a21.93,21.93,0,0,0,21.93-21.94h0V330.86a21.93,21.93,0,0,0-21.93-21.94Z"/><path d="M458.11,535.6a7.3,7.3,0,0,1-4.76-1.77l-245.25-211,9.51-11.09,240.5,206.86L698.59,311.78l9.51,11.09-245.25,211a7.36,7.36,0,0,1-4.74,1.77Z"/><path d="M541.19,456.92,552,447,702.23,610.85l-10.78,9.89Z"/><path d="M212.68,609.86l150-163.79,10.78,9.87-150,163.79Z"/></g></svg>