<svg id="Capa_1" data-name="Capa 1" xmlns="http://www.w3.org/2000/svg" viewBox="0 0 916.23 924.95"><defs><style>.cls-1{fill:none;stroke:#000;stroke-miterlimit:10;stroke-width:18px;}</style></defs><title>whatsapp</title><circle class="cls-1" cx="458.11" cy="462.48" r="440.9"/><path d="M458.11,206.55C353.86,206.55,269,291.37,269,395.63c0,34.32,15.39,71.24,16,72.8a304.87,304.87,0,0,0,21.85,40.87L436.57,705.73c5.31,8,13.16,12.67,21.54,12.67s16.24-4.62,21.55-12.66L609.31,509.3a304.93,304.93,0,0,0,21.86-40.87c.64-1.55,16-38.46,16-72.8C647.19,291.37,562.37,206.55,458.11,206.55ZM610.66,459.79a279.46,279.46,0,0,1-19.92,37.26L461.08,693.49c-2.55,3.89-3.37,3.89-5.92,0L325.5,497.05a278.36,278.36,0,0,1-19.91-37.27c-.19-.45-14.31-34.43-14.31-64.15,0-92,74.84-166.83,166.83-166.83S625,303.64,625,395.63C625,425.39,610.8,459.46,610.66,459.79Z"/><path d="M458.11,295.54a100.1,100.1,0,1,0,100.1,100.1A100.21,100.21,0,0,0,458.11,295.54Zm0,178A77.86,77.86,0,1,1,536,395.64,77.95,77.95,0,0,1,458.11,473.5Z"/></svg>